<?xml version="1.0" standalone="no"?>
<!DOCTYPE svg PUBLIC "-//W3C//DTD SVG 20010904//EN"
 "http://www.w3.org/TR/2001/REC-SVG-20010904/DTD/svg10.dtd">
<svg version="1.0" xmlns="http://www.w3.org/2000/svg"
 width="64.000000pt" height="64.000000pt" viewBox="0 0 64.000000 64.000000"
 preserveAspectRatio="xMidYMid meet">

<g transform="translate(0.000000,64.000000) scale(0.100000,-0.100000)"
fill="#000000" stroke="none">
<path d="M153 492 l-33 -3 0 -59 c0 -56 -15 -90 -41 -90 -5 0 -9 -27 -9 -61 0
-55 1 -59 16 -45 8 9 30 16 48 16 51 0 57 15 54 136 l-3 109 -32 -3z"/>
<path d="M437 423 c-21 -3 -27 -9 -22 -22 3 -11 -4 -26 -20 -41 l-25 -23 -25
23 -24 23 -46 -37 c-25 -21 -45 -41 -45 -46 0 -21 23 -19 55 6 l36 27 24 -23
25 -24 39 38 c22 21 44 35 50 32 11 -7 15 -1 25 47 5 19 2 27 -6 26 -7 -1 -26
-4 -41 -6z"/>
<path d="M225 239 c-15 -23 16 -30 131 -27 98 2 119 6 119 18 0 12 -21 15
-122 18 -81 2 -124 -1 -128 -9z"/>
</g>
</svg>
