<?xml version="1.0" standalone="no"?>
<!DOCTYPE svg PUBLIC "-//W3C//DTD SVG 20010904//EN"
 "http://www.w3.org/TR/2001/REC-SVG-20010904/DTD/svg10.dtd">
<svg version="1.0" xmlns="http://www.w3.org/2000/svg"
 width="200.000000pt" height="80.000000pt" viewBox="0 0 200.000000 80.000000"
 preserveAspectRatio="xMidYMid meet">

<g transform="translate(0.000000,80.000000) scale(0.100000,-0.100000)"
fill="#000000" stroke="none">
<path d="M12 520 c3 -233 5 -261 21 -277 16 -17 54 -18 529 -21 366 -2 514 1
524 9 10 9 14 69 16 280 l3 269 -548 0 -548 0 3 -260z m678 91 c0 -13 -8 -21
-22 -23 -34 -5 -37 -38 -4 -38 19 0 26 -5 26 -20 0 -15 -7 -20 -25 -20 -24 0
-25 -2 -25 -65 0 -63 -1 -65 -25 -65 -24 0 -25 2 -25 65 0 58 -2 65 -20 65
-12 0 -20 7 -20 16 0 9 9 18 20 21 11 3 20 13 20 22 0 33 30 61 66 61 27 0 34
-4 34 -19z m180 -110 l0 -119 -66 0 c-52 0 -70 4 -85 19 -24 24 -26 95 -3 128
14 19 24 22 60 19 l44 -3 0 37 c0 34 3 38 25 38 l25 0 0 -119z m-525 24 c17
-82 18 -83 28 -27 9 50 11 52 42 52 31 0 33 -2 42 -52 10 -55 11 -54 28 25 4
21 11 27 31 27 17 0 24 -5 21 -12 -2 -7 -13 -46 -23 -86 -18 -72 -19 -73 -49
-70 -27 3 -30 7 -41 58 l-11 55 -9 -55 c-9 -52 -11 -55 -39 -58 -30 -3 -31 -2
-50 70 -10 40 -20 79 -23 86 -3 7 5 12 22 12 19 0 27 -6 31 -25z"/>
<path d="M754 497 c-3 -9 -4 -28 -2 -44 3 -24 7 -28 33 -28 28 0 30 2 30 40 0
36 -3 40 -28 43 -17 2 -29 -2 -33 -11z"/>
<path d="M1260 770 l-45 -7 48 -1 c26 -1 47 3 47 8 0 6 -1 9 -2 8 -2 0 -23 -4
-48 -8z"/>
<path d="M1346 753 c10 -40 14 -41 14 -5 0 18 -5 32 -10 32 -6 0 -8 -11 -4
-27z"/>
<path d="M1128 763 c7 -3 16 -2 19 1 4 3 -2 6 -13 5 -11 0 -14 -3 -6 -6z"/>
<path d="M1490 746 c0 -17 24 -38 33 -29 4 3 7 16 6 27 -1 18 -2 18 -9 -4 -8
-24 -8 -24 -9 -2 -1 23 -21 32 -21 8z"/>
<path d="M1547 753 c-11 -10 -8 -43 4 -43 5 0 7 5 4 10 -3 6 0 10 7 10 10 0
10 2 -1 9 -11 7 -10 10 5 14 14 3 15 5 3 6 -9 0 -19 -2 -22 -6z"/>
<path d="M1592 735 c0 -16 2 -22 5 -12 2 9 2 23 0 30 -3 6 -5 -1 -5 -18z"/>
<path d="M1628 753 c6 -2 18 -2 25 0 6 3 1 5 -13 5 -14 0 -19 -2 -12 -5z"/>
<path d="M1470 730 c0 -11 4 -20 9 -20 5 0 7 9 4 20 -3 11 -7 20 -9 20 -2 0
-4 -9 -4 -20z"/>
<path d="M1340 535 c0 -110 4 -175 10 -175 6 0 10 65 10 175 0 110 -4 175 -10
175 -6 0 -10 -65 -10 -175z"/>
<path d="M1471 648 c2 -28 2 -29 6 -8 3 14 10 28 17 32 7 5 5 8 -6 8 -14 0
-18 -8 -17 -32z"/>
<path d="M1517 674 c-12 -12 -8 -46 4 -38 6 3 15 0 20 -7 5 -9 7 -4 6 15 -2
29 -17 43 -30 30z m23 -14 c0 -5 -4 -10 -10 -10 -5 0 -10 5 -10 10 0 6 5 10
10 10 6 0 10 -4 10 -10z"/>
<path d="M1590 650 c0 -22 5 -30 18 -29 10 0 12 3 5 6 -7 2 -13 13 -13 23 0
10 6 21 13 23 7 3 5 6 -5 6 -13 1 -18 -7 -18 -29z"/>
<path d="M1640 650 c0 -25 4 -31 18 -28 11 2 17 12 17 28 0 16 -6 26 -17 28
-14 3 -18 -3 -18 -28z m30 0 c0 -11 -4 -20 -10 -20 -5 0 -10 9 -10 20 0 11 5
20 10 20 6 0 10 -9 10 -20z"/>
<path d="M1694 665 c-8 -20 2 -45 18 -44 10 0 10 2 1 6 -7 2 -13 13 -13 23 0
10 6 21 13 23 9 4 9 6 -1 6 -7 1 -15 -6 -18 -14z"/>
<path d="M1740 651 c0 -17 2 -31 4 -31 8 0 13 51 5 56 -5 3 -9 -9 -9 -25z"/>
<path d="M1808 673 c7 -3 16 -2 19 1 4 3 -2 6 -13 5 -11 0 -14 -3 -6 -6z"/>
<path d="M1766 653 c-4 -9 -2 -21 4 -27 7 -7 10 -2 10 17 0 31 -5 34 -14 10z"/>
<path d="M1809 646 c8 -10 9 -16 1 -19 -6 -3 -5 -4 2 -3 19 4 20 23 2 30 -14
5 -15 4 -5 -8z"/>
<path d="M1471 567 c-1 -22 3 -28 17 -25 9 2 18 13 20 26 2 19 1 19 -4 2 -7
-27 -22 -25 -27 3 -4 18 -5 17 -6 -6z"/>
<path d="M1551 568 c-1 -20 4 -28 17 -28 13 0 14 2 4 9 -8 4 -13 11 -12 15 1
4 -1 12 -3 19 -3 6 -6 0 -6 -15z"/>
<path d="M1600 566 c0 -31 6 -34 13 -6 3 11 1 23 -4 26 -5 3 -9 -6 -9 -20z"/>
<path d="M1627 570 c-3 -11 -1 -23 4 -26 5 -3 9 6 9 20 0 31 -6 34 -13 6z"/>
<path d="M1650 581 c0 -5 8 -12 18 -16 16 -7 15 -8 -3 -16 -19 -8 -19 -9 -1
-6 27 3 30 20 6 35 -11 7 -20 8 -20 3z"/>
<path d="M1712 565 c0 -16 2 -22 5 -12 2 9 2 23 0 30 -3 6 -5 -1 -5 -18z"/>
<path d="M1760 560 c0 -11 4 -20 10 -20 5 0 6 7 3 17 -5 12 -3 14 7 8 9 -5 11
-4 6 3 -11 19 -26 14 -26 -8z"/>
<path d="M1823 567 c3 -25 21 -26 25 -2 2 15 1 17 -6 6 -8 -11 -11 -11 -16 0
-3 9 -5 7 -3 -4z"/>
<path d="M1470 453 c1 -14 30 -48 30 -34 0 7 -7 19 -15 27 -8 9 -15 12 -15 7z"/>
<path d="M1520 445 c0 -8 4 -15 10 -15 5 0 7 7 4 15 -4 8 -8 15 -10 15 -2 0
-4 -7 -4 -15z"/>
<path d="M1560 433 c0 -22 2 -25 10 -13 8 12 11 13 19 1 6 -9 8 -5 8 15 0 16
-2 23 -4 17 -3 -7 -9 -13 -14 -13 -6 0 -7 5 -4 10 3 6 1 10 -4 10 -6 0 -11
-12 -11 -27z"/>
<path d="M1662 435 c0 -16 2 -22 5 -12 2 9 2 23 0 30 -3 6 -5 -1 -5 -18z"/>
<path d="M1740 435 c0 -17 5 -25 18 -25 13 0 14 2 3 9 -7 5 -9 10 -3 12 6 2 4
9 -4 17 -12 11 -14 9 -14 -13z"/>
<path d="M1620 420 c0 -5 5 -10 10 -10 6 0 10 5 10 10 0 6 -4 10 -10 10 -5 0
-10 -4 -10 -10z"/>
<path d="M1690 420 c0 -6 7 -10 15 -10 8 0 15 2 15 4 0 2 -7 6 -15 10 -8 3
-15 1 -15 -4z"/>
<path d="M1528 413 c7 -3 16 -2 19 1 4 3 -2 6 -13 5 -11 0 -14 -3 -6 -6z"/>
<path d="M1471 353 c0 -25 1 -26 9 -8 12 27 12 35 0 35 -5 0 -10 -12 -9 -27z"/>
<path d="M1500 360 c-9 -16 -8 -18 5 -14 8 4 15 12 15 20 0 20 -7 17 -20 -6z"/>
<path d="M1540 371 c0 -6 6 -8 14 -5 9 4 16 -3 19 -18 5 -22 5 -22 4 2 -2 24
-37 44 -37 21z"/>
<path d="M1591 353 c0 -24 2 -25 8 -8 8 19 8 19 19 0 6 -11 11 -15 11 -10 0
12 -24 45 -33 45 -3 0 -6 -12 -5 -27z"/>
<path d="M1651 353 c2 -24 2 -25 6 -5 2 12 8 22 13 22 5 0 11 -10 13 -22 4
-20 4 -19 6 5 1 21 -4 27 -19 27 -15 0 -20 -6 -19 -27z"/>
<path d="M1740 370 c0 -5 5 -10 10 -10 6 0 10 5 10 10 0 6 -4 10 -10 10 -5 0
-10 -4 -10 -10z"/>
<path d="M1780 355 c0 -14 4 -25 9 -25 4 0 6 11 3 25 -2 14 -6 25 -8 25 -2 0
-4 -11 -4 -25z"/>
<path d="M1351 334 c0 -11 3 -14 6 -6 3 7 2 16 -1 19 -3 4 -6 -2 -5 -13z"/>
<path d="M1730 342 c0 -4 9 -8 20 -8 11 0 20 4 20 8 0 4 -9 8 -20 8 -11 0 -20
-4 -20 -8z"/>
<path d="M1343 290 c-1 -11 2 -22 6 -24 3 -3 8 6 9 20 1 13 -2 24 -6 24 -4 0
-8 -9 -9 -20z"/>
<path d="M1470 275 c0 -19 4 -23 17 -18 11 4 12 8 5 11 -7 2 -12 8 -12 14 0 6
7 7 16 4 8 -3 12 -2 9 4 -12 20 -35 10 -35 -15z"/>
<path d="M1525 291 c-3 -6 0 -8 9 -5 9 4 16 -2 19 -18 5 -23 5 -23 4 1 -2 26
-21 39 -32 22z"/>
<path d="M1572 280 c0 -14 2 -19 5 -12 2 6 2 18 0 25 -3 6 -5 1 -5 -13z"/>
<path d="M1599 272 c-3 -20 -2 -29 4 -23 5 5 7 19 5 32 -3 20 -5 19 -9 -9z"/>
<path d="M1631 273 c2 -24 2 -25 6 -5 2 12 8 22 13 22 4 0 6 -10 4 -22 -4 -21
-4 -21 5 -3 10 23 5 35 -15 35 -9 0 -14 -10 -13 -27z"/>
<path d="M1702 275 c0 -16 2 -22 5 -12 2 9 2 23 0 30 -3 6 -5 -1 -5 -18z"/>
<path d="M1750 292 c0 -5 7 -17 16 -28 14 -17 15 -17 10 -1 -3 10 -6 23 -6 28
0 5 -4 9 -10 9 -5 0 -10 -4 -10 -8z"/>
<path d="M1810 275 c0 -23 2 -25 21 -15 23 13 21 33 -4 38 -12 3 -17 -4 -17
-23z m30 5 c0 -5 -4 -10 -10 -10 -5 0 -10 5 -10 10 0 6 5 10 10 10 6 0 10 -4
10 -10z"/>
<path d="M1864 285 c-4 -11 -9 -24 -11 -30 -3 -5 3 -1 11 9 16 20 16 20 17 0
0 -10 3 -14 5 -7 3 7 1 20 -5 30 -9 17 -10 17 -17 -2z"/>
<path d="M1912 275 c0 -16 2 -22 5 -12 2 9 2 23 0 30 -3 6 -5 -1 -5 -18z"/>
<path d="M1935 275 c0 -12 6 -21 15 -21 9 0 15 9 15 21 0 12 -6 21 -15 21 -9
0 -15 -9 -15 -21z"/>
<path d="M1298 254 c-4 -17 -2 -21 11 -19 9 2 19 4 24 4 4 1 7 6 7 12 0 8 -4
8 -14 0 -11 -10 -15 -8 -18 6 -3 16 -5 15 -10 -3z"/>
<path d="M1520 261 c0 -6 4 -13 10 -16 6 -3 7 1 4 9 -7 18 -14 21 -14 7z"/>
<path d="M453 102 c0 -15 -3 -41 -7 -57 -6 -23 -5 -27 4 -19 15 15 25 90 13
97 -5 3 -10 -6 -10 -21z"/>
<path d="M513 90 c0 -25 2 -35 4 -22 2 12 2 32 0 45 -2 12 -4 2 -4 -23z"/>
<path d="M563 78 c1 -32 4 -58 7 -58 10 0 11 66 1 91 -8 19 -9 12 -8 -33z"/>
<path d="M693 81 c-1 -50 10 -61 20 -21 3 12 1 18 -5 14 -6 -4 -8 1 -4 12 3
11 2 25 -3 32 -4 8 -8 -7 -8 -37z"/>
<path d="M718 123 c7 -3 16 -2 19 1 4 3 -2 6 -13 5 -11 0 -14 -3 -6 -6z"/>
<path d="M813 123 c9 -2 23 -2 30 0 6 3 -1 5 -18 5 -16 0 -22 -2 -12 -5z"/>
<path d="M381 104 c0 -11 3 -14 6 -6 3 7 2 16 -1 19 -3 4 -6 -2 -5 -13z"/>
<path d="M804 90 c1 -9 12 -16 26 -17 21 -1 21 -1 3 3 -12 3 -24 11 -26 17 -2
7 -3 5 -3 -3z"/>
<path d="M596 87 c3 -10 9 -15 12 -12 3 3 0 11 -7 18 -10 9 -11 8 -5 -6z"/>
<path d="M641 74 c0 -11 3 -14 6 -6 3 7 2 16 -1 19 -3 4 -6 -2 -5 -13z"/>
<path d="M310 76 c0 -2 7 -7 16 -10 8 -3 12 -2 9 4 -6 10 -25 14 -25 6z"/>
<path d="M627 29 c7 -7 15 -10 18 -7 3 3 -2 9 -12 12 -14 6 -15 5 -6 -5z"/>
<path d="M809 27 c5 -5 19 -7 32 -5 20 3 19 5 -9 9 -20 3 -29 2 -23 -4z"/>
<path d="M318 23 c7 -3 16 -2 19 1 4 3 -2 6 -13 5 -11 0 -14 -3 -6 -6z"/>
<path d="M738 23 c7 -3 16 -2 19 1 4 3 -2 6 -13 5 -11 0 -14 -3 -6 -6z"/>
</g>
</svg>
